/* XPM */
static char *_618e6d5274146e3b8c9b043100b55a7CFsfoTRANXZygXAE[] = {
/* columns rows colors chars-per-pixel */
"128 128 53 1 ",
"  c None",
". c #214161",
"X c #214869",
"o c #2F4D6B",
"O c #224E71",
"+ c #225175",
"@ c #225579",
"# c #3D5975",
"$ c #4B657F",
"% c #225B81",
"& c #226289",
"* c #236891",
"= c #236F99",
"- c #2376A1",
"; c #237CA9",
": c #597189",
"> c #667C92",
", c #2483B1",
"< c #2489B9",
"1 c #3F8DB5",
"2 c #74889C",
"3 c #678AA2",
"4 c #2490C1",
"5 c #2496C9",
"6 c #259DD1",
"7 c #25A1D6",
"8 c #25A3D9",
"9 c #25AAE1",
"0 c #33AFE3",
"q c #40B5E5",
"w c #4EBAE7",
"e c #5BB9E1",
"r c #5CBFE9",
"t c #69C5EA",
"y c #8294A6",
"u c #90A0B0",
"i c #9EACBA",
"p c #91BAD0",
"a c #ACB8C4",
"s c #BAC4CE",
"d c #84CFEE",
"f c #9FCDE2",
"g c #92D5F0",
"h c #A0DAF2",
"j c #ADDFF4",
"k c #C8D0D8",
"l c #D5DBE1",
"z c #C9EAF8",
"x c #E3E7EB",
"c c #E4F4FB",
"v c #F1F3F5",
"b c #F1FAFD",
"n c white",
/* pixels */
"                                                      99999999999999999999                                                      ",
"                                                 999999999999999999999999999999                                                 ",
"                                              999999999999999999999999999999999999                                              ",
"                                           999999999999999999999999999999999999999999                                           ",
"                                        999999999999999999999999999999999999999999999999                                        ",
"                                      9999999999999999999999999999999999999999999999999999                                      ",
"                                   9999999999999999999999999999999999999999999999999999999999                                   ",
"                                 99999999999999999999999999999999999999999999999999999999999999                                 ",
"                                9999999999999999999999999999999999999999999999999999999999999999                                ",
"                              99999999999999999999999999999999999999999999999999999999999999999999                              ",
"                            99999999999999999999999999999999999999999999999999999999999999999999999                             ",
"                           99999999999999999999999999999999999999999999999999999999999999999999999999                           ",
"                          9999999999999999999999999999999999999999999999999999999999999999999999999999                          ",
"                        99999999999999999999999999999999999999999999999999999999999999999999999999999999                        ",
"                       9999999999999999999999999999999999999999999999999999999999999999999999999999999999                       ",
"                      9999999999999999999999999999999999999999999999999999999999999999999999999999999998-+                      ",
"                     999999999999999999999999999999999999999999999999999999999999999999999999999999995*....                     ",
"                    9999999999999999999999999999999999999999999999999999999999999999999999999999999,%.......                    ",
"                   999999999999999999999999999999999999999999999999999999999999999999999999999998-O..........                   ",
"                  99999999999999999999999999999999999999999999999999999999999999999999999999995*..............                  ",
"                 999999999999999999999999999999999999999999999999999999999999999999999999999,%.................                 ",
"                99999999999999999999999999999999999999999999999999999999999999999999999998-O....................                ",
"               9999999999999999999999999999999999999999999999999999999999999999999999996*........................               ",
"              99999999999999999999999999999999999999999999999999999999999999999999999<%...........................              ",
"             9999999999999999999999999999999999999999999999999999999999999999999998;O..............................             ",
"             99999999999999999999999999999999999999999999999999999999999999999996*X................................             ",
"            999999999999999999999999999999999999999999999999999999999999999999<%....................................            ",
"           99999999999999999999999999999999999999999999999999999999999999998;O.......................................           ",
"          9999999999999999999999999999999999999999999999999999999999999996*X.........................................           ",
"          99999999999999999999999999999999999999999999999999999999999994&.............................................          ",
"         999999999999999999999999999999999999999999999999999999999998,O................................................         ",
"         9999999999999999999999999999999999999999999999999999999996=X..................................................         ",
"        999999999999999999999999999999999999999999999999999999994&......................................................        ",
"       9999999999999999999999999999999999999999999999999999998,O.........................................................       ",
"       99999999999999999999999999999999999999999999999999996=X...........................................................       ",
"      9999999999999999999999999999999999999999999999999994*...............................................................      ",
"      9999999999999999999999999999999999999999999999999,@.................................................................      ",
"      99999999999999999999999999999999999999999999996-X...................................................................      ",
"     9999999999999999999999999999999999999999999994*.......................................................................     ",
"     9999999999999999999999999999999999999999999,@...................................................o$....................     ",
"    999999999999999999999999999999999999999996-X.....................................................uk.....................    ",
"    9999999999999999999999999999999999999995*...............$::::::o.................................vn$....................    ",
"    99999qrrrrrrrrrrrrr999999999999999999,%.............$uknnnnnnnnnxa2o............................2nna....................    ",
"   999999gnnnnnnnnnnnnnnnzht99999999998-O.............2lnnnnnnnnnnnnnnnvi#..........................xnnn#....................   ",
"   999999gnnnnnnnnnnnnnnnnnnbjq999995*..............:xnnnnnnnnnnnnnnnnnnnvu........................:nnnni....................   ",
"   999999gnnnnnnnnnnnnnnnnnnnnnjq9,%...............innnnnnnnnnnnnnnnnnnnnnnl$......................knnnnvo...................   ",
"  9999999gnnnnnnnnnnnnnnnnnnnnnnb3...............olnnnnnnnnnnnnnnnnnnnnnnnnnv>....................$nnnnnnu....................  ",
"  9999999gnnnnnnnnnnnnnnnnnnnnnnnnu.............olnnnnnnnnnnnnnnnnnnnnnnnnnnnn2...................annnnnnx....................  ",
"  9999999gnnnnnnnnnnnnnnnnnnnnnnnnnu...........olnnnnnnnnnnnnnnnnnnnnnnnnnnnnnn2.................#nnnnnnnn2...................  ",
" 99999999gnnnnnnnnnnnnnnnnnnnnnnnnnn2..........lnnnnnnnnnnnnlauuualnnnnnnnnnnnnv$................innnnnnnnx.................... ",
" 99999999gnnnnnnndrrggfkvnnnnnnnnnnnv$........innnnnnnnnnvuo.......o2xnnnnnnnnnnxo..............ovnnnnnnnnn:................... ",
" 99999999gnnnnnnnr99<%...$ivnnnnnnnnnl.......:nnnnnnnnnnio............yvnnnnnnnnni..............ynnnnnnnnnnk................... ",
" 99999999gnnnnnnne;O.......oknnnnnnnnn2......lnnnnnnnnn2...............$xnnnnnnnnn#.............xnnnnnnnnnnn$.................. ",
" 99999999gnnnnnnn:...........annnnnnnnx.....>nnnnnnnnn2.................oxnnnnnnnna............2nnnnnnnnnnnna.................. ",
"999999999gnnnnnnn:............knnnnnnnn2....snnnnnnnny...................$vnnnnnnnno...........lnnnnnnnnnnnnn#..................",
"999999999gnnnnnnn:............ovnnnnnnns...onnnnnnnnk.....................ynnnnnnnn2..........:nnnnnnnnnnnnnni..................",
"999999996pnnnnnnn:.............unnnnnnnn...2nnnnnnnn#......................xnnnnnnns..........snnnnnnnnnnnnnnvo.................",
"9999994&.unnnnnnn:.............ovnnnnnnn:..innnnnnnk.......................ynnnnnnnv.........#nnnnnnnnxnnnnnnnu.................",
"9998,O...unnnnnnn:..............annnnnnnu..knnnnnnny.......................#nnnnnnnno........annnnnnna2nnnnnnnx.................",
"96=X.....unnnnnnn:..............ynnnnnnnu..lnnnnnnn:........................nnnnnnnn:.......onnnnnnnn$.vnnnnnnn2................",
"&........unnnnnnn:..............:nnnnnnnk..nnnnnnnn.........................knnnnnnn:.......unnnnnnnk..unnnnnnnx................",
".........unnnnnnn:..............:nnnnnnnk..nnnnnnnn.........................knnnnnnn:.......vnnnnnnn>..ovnnnnnnn:...............",
".........unnnnnnn:..............:nnnnnnnk..nnnnnnnn.........................knnnnnnn:......2nnnnnnnx....annnnnnnk...............",
".........unnnnnnn:..............ynnnnnnnu..knnnnnnn:........................nnnnnnnn:......xnnnnnnn2....#nnnnnnnn$..............",
".........unnnnnnn:..............annnnnnnu..knnnnnnn2.......................#nnnnnnnn......>nnnnnnnnuuuuuuxnnnnnnna..............",
".........unnnnnnn:.............ovnnnnnnn:..unnnnnnns.......................ynnnnnnnx......knnnnnnnnnnnnnnnnnnnnnnn#.............",
".........unnnnnnn:.............ynnnnnnnno..>nnnnnnnn#......................xnnnnnnns.....:nnnnnnnnnnnnnnnnnnnnnnnni.............",
".........unnnnnnn:............ovnnnnnnns...onnnnnnnns.....................ynnnnnnnn2.....annnnnnnnnnnnnnnnnnnnnnnnvo............",
".........unnnnnnn:............lnnnnnnnn2....snnnnnnnn2...................$vnnnnnnnno....#nnnnnnnnnnnnnnnnnnnnnnnnnnu............",
".........unnnnnnn:..........osnnnnnnnnx.....:nnnnnnnnn2.................oxnnnnnnnna.....innnnnnnnnnnnnnnnnnnnnnnnnnx............",
".........unnnnnnn:.........:xnnnnnnnnn2......knnnnnnnnn2...............$lnnnnnnnnn#....ovnnnnnnnnnnnnnnnnnnnnnnnnnnn2...........",
".........unnnnnnn:.......>knnnnnnnnnnk.......:nnnnnnnnnnso............>vnnnnnnnnna.....unnnnnnnxuuuuuuuuuuuusnnnnnnnx...........",
".........unnnnnnny2uuuaknnnnnnnnnnnnv#........innnnnnnnnnvi#........>knnnnnnnnnnvo.....xnnnnnnn2............onnnnnnnn:..........",
".........unnnnnnnnnnnnnnnnnnnnnnnnnn>.........olnnnnnnnnnnnnxsuuuukvnnnnnnnnnnnn:.....2nnnnnnnx..............annnnnnnk.......%, ",
" ........unnnnnnnnnnnnnnnnnnnnnnnnn2...........#vnnnnnnnnnnnnnnnnnnnnnnnnnnnnnn2......lnnnnnnnu..............#nnnnnnnn$....*599 ",
" ........unnnnnnnnnnnnnnnnnnnnnnnn2.............$vnnnnnnnnnnnnnnnnnnnnnnnnnnnna......:nnnnnnnvo...............snnnnnnna.O-89999 ",
" ........unnnnnnnnnnnnnnnnnnnnnnv:...............$xnnnnnnnnnnnnnnnnnnnnnnnnnn2.......knnnnnnna................:nnnnnnnn19999999 ",
" ........unnnnnnnnnnnnnnnnnnnnnio.................oknnnnnnnnnnnnnnnnnnnnnnnv>.......#nnnnnnnn#.................knnnnnnnh9999999 ",
" ........unnnnnnnnnnnnnnnnnnva#.....................yvnnnnnnnnnnnnnnnnnnnnso........annnnnnna..................2nnnnnnnb0999999 ",
"  .......unnnnnnnnnnnnnnnki>.........................ouvnnnnnnnnnnnnnnnns:.........#nnnnnnnn:..................@cnnnnnnng99999  ",
"  .......#:::::::::::::#................................2svnnnnnnnnnnly#...........o::::::::.................*49qrrrrrrrw99999  ",
"  .........................................................#ynnnnnny......................................X-699999999999999999  ",
"   .........................................................:nnnnnn:....................................@,9999999999999999999   ",
"   .........................................................:nnnnnn:..................................*4999999999999999999999   ",
"   .........................................................:nnnnnn:...............................X-699999999999999999999999   ",
"    ........................................................:nnnnnn:.............................O,8999999999999999999999999    ",
"    ........................................................:nnnnnn:...........................&4999999999999999999999999999    ",
"    ........................................................#nnnnnn#........................X=699999999999999999999999999999    ",
"     ........................................................:uuuu:.......................O,8999999999999999999999999999999     ",
"     ...................................................................................&4999999999999999999999999999999999     ",
"      ...............................................................................X=69999999999999999999999999999999999      ",
"      .............................................................................O;8999999999999999999999999999999999999      ",
"      ...........................................................................%<999999999999999999999999999999999999999      ",
"       .......................................................................X*69999999999999999999999999999999999999999       ",
"       .....................................................................O;8999999999999999999999999999999999999999999       ",
"        ..................................................................%<99999999999999999999999999999999999999999999        ",
"         ..............................................................X*6999999999999999999999999999999999999999999999         ",
"         ............................................................O-899999999999999999999999999999999999999999999999         ",
"          .........................................................%,9999999999999999999999999999999999999999999999999          ",
"           ......................................................*599999999999999999999999999999999999999999999999999           ",
"           ...................................................O-89999999999999999999999999999999999999999999999999999           ",
"            ................................................%,999999999999999999999999999999999999999999999999999999            ",
"             .............................................*59999999999999999999999999999999999999999999999999999999             ",
"             ..........................................X-8999999999999999999999999999999999999999999999999999999999             ",
"              .......................................@,99999999999999999999999999999999999999999999999999999999999              ",
"               ....................................*4999999999999999999999999999999999999999999999999999999999999               ",
"                ................................X-69999999999999999999999999999999999999999999999999999999999999                ",
"                 .............................@,999999999999999999999999999999999999999999999999999999999999999                 ",
"                  ..........................*49999999999999999999999999999999999999999999999999999999999999999                  ",
"                   ......................X-699999999999999999999999999999999999999999999999999999999999999999                   ",
"                    ...................O,8999999999999999999999999999999999999999999999999999999999999999999                    ",
"                     ................&499999999999999999999999999999999999999999999999999999999999999999999                     ",
"                      ............X=6999999999999999999999999999999999999999999999999999999999999999999999                      ",
"                       .........O,89999999999999999999999999999999999999999999999999999999999999999999999                       ",
"                        ......&4999999999999999999999999999999999999999999999999999999999999999999999999                        ",
"                          .X=6999999999999999999999999999999999999999999999999999999999999999999999999                          ",
"                           79999999999999999999999999999999999999999999999999999999999999999999999999                           ",
"                             99999999999999999999999999999999999999999999999999999999999999999999999                            ",
"                              99999999999999999999999999999999999999999999999999999999999999999999                              ",
"                                9999999999999999999999999999999999999999999999999999999999999999                                ",
"                                 99999999999999999999999999999999999999999999999999999999999999                                 ",
"                                   9999999999999999999999999999999999999999999999999999999999                                   ",
"                                      9999999999999999999999999999999999999999999999999999                                      ",
"                                        999999999999999999999999999999999999999999999999                                        ",
"                                           999999999999999999999999999999999999999999                                           ",
"                                              999999999999999999999999999999999999                                              ",
"                                                 999999999999999999999999999999                                                 ",
"                                                      99999999999999999999                                                      "
};
