/* XPM */
static char *_e0ab29741714a1b8aff0ff4fa65680fDTdZZFZ176fj9JLC[] = {
/* columns rows colors chars-per-pixel */
"64 64 51 1 ",
"  c None",
". c #214161",
"X c #214869",
"o c #2F4D6B",
"O c #224E71",
"+ c #225579",
"@ c #3D5975",
"# c #4B657F",
"$ c #225B81",
"% c #226289",
"& c #22648C",
"* c #236891",
"= c #236F99",
"- c #23719C",
"; c #2376A1",
": c #237CA9",
"> c #597189",
", c #667C92",
"< c #2483B1",
"1 c #2489B9",
"2 c #67839A",
"3 c #74889C",
"4 c #5A8BA9",
"5 c #5A98B9",
"6 c #2490C1",
"7 c #2496C9",
"8 c #259DD1",
"9 c #25A3D9",
"0 c #25AAE1",
"q c #33AFE3",
"w c #40B5E5",
"e c #4EBAE7",
"r c #5CBFE9",
"t c #8294A6",
"y c #90A0B0",
"u c #9EACBA",
"i c #ACB8C4",
"p c #BAC4CE",
"a c #84CFEE",
"s c #92D5F0",
"d c #BAD7E6",
"f c #BBE4F6",
"g c #C8D0D8",
"h c #C8D6E0",
"j c #D5DBE1",
"k c #C9EAF8",
"l c #D6EFF9",
"z c #E3E7EB",
"x c #E4F4FB",
"c c #F1F3F5",
"v c white",
/* pixels */
"                         00000000000000                         ",
"                      00000000000000000000                      ",
"                   00000000000000000000000000                   ",
"                 000000000000000000000000000000                 ",
"               0000000000000000000000000000000000               ",
"              000000000000000000000000000000000000              ",
"            0000000000000000000000000000000000000000            ",
"           00000000000000000000000000000000000000009-           ",
"          0000000000000000000000000000000000000008*X..          ",
"         000000000000000000000000000000000000001$......         ",
"        0000000000000000000000000000000000009:O.........        ",
"       000000000000000000000000000000000008=X............       ",
"      00000000000000000000000000000000006%................      ",
"      00000000000000000000000000000009<O..................      ",
"     0000000000000000000000000000008=X.....................     ",
"    000000000000000000000000000006%.........................    ",
"    000000000000000000000000009<O...........................    ",
"   00000000000000000000000008;X..............................   ",
"   000000000000000000000006*.................................   ",
"  0000000000000000000000<+.........................o..........  ",
"  00000000000000000008;X......@>>o................3y..........  ",
"  00ekkkkkfsae000006*......,pcvvvvzi@.............zco.........  ",
" 000rvvvvvvvvvxsq<+......#jvvvvvvvvvvuo..........>vv3.......... ",
" 000rvvvvvvvvvvvj#......3cvvvvvvvvvvvvjo.........gvvz.......... ",
" 000rvvvvvvvvvvvvco....>vvvvvvzggvvvvvvjo.......#vvvv3......... ",
"0000rvvvlr52uzvvvvg...ocvvvvp@....3zvvvvp.......ivvvvg..........",
"0000rvvvhO...oivvvv3..yvvvv3.......ojvvvv>.....@vvvvvv>.........",
"0000rvvvg......gvvvj..cvvvu.........ozvvvi.....yvvvvvvp.........",
"000<4vvvg......@vvvvo>vvvco..........3vvvc....ocvvvvvvv@........",
"9;O.>vvvg.......jvvv>tvvvp...........ovvvv....tvvvgivvvi........",
"....>vvvg.......ivvv>yvvvy............vvvv#...zvvv>@vvvvo.......",
"....>vvvg.......gvvv>yvvvu............vvvv...3vvvz..pvvvy.......",
"....>vvvg.......zvvv#,vvvj...........#vvvv...gvvvzggzvvvco......",
"....>vvvg......tvvvc.@vvvv>..........ivvvg..>vvvvvvvvvvvv3......",
"....>vvvg.....#cvvvi..gvvvzo........3vvvvt..pvvvvvvvvvvvvz......",
"....>vvvg...oyvvvvc@..>vvvvj#......tvvvvco.@vvvcggggggcvvv3.....",
"....>vvvcggjvvvvvv3....ivvvvvp3>>tjvvvvv,..ivvvi......tvvvg....&",
"....>vvvvvvvvvvvv3.....ojvvvvvvvvvvvvvvu..ocvvv@......ocvvv>X;80",
"....>vvvvvvvvvvc,.......opvvvvvvvvvvvvt...yvvvp........yvvvd0000",
" ...>vvvvvvvvp3o..........3zvvvvvvvvg#....cvvv>........@vvvvw00 ",
" ...o>>>>>>.................,ycvvzt#.....o>>>>.......X;8errrq00 ",
" .............................gvvg.................+<0000000000 ",
"  ............................gvvg...............%600000000000  ",
"  ............................pvvp............X=80000000000000  ",
"  ............................o>>o..........O<9000000000000000  ",
"   .......................................%600000000000000000   ",
"   ....................................X=80000000000000000000   ",
"    .................................O<900000000000000000000    ",
"    ...............................$600000000000000000000000    ",
"     ...........................X*8000000000000000000000000     ",
"      ........................O:90000000000000000000000000      ",
"      ......................$10000000000000000000000000000      ",
"       ..................X*800000000000000000000000000000       ",
"        ...............O:9000000000000000000000000000000        ",
"         ............$100000000000000000000000000000000         ",
"          .........*7000000000000000000000000000000000          ",
"           .....O;90000000000000000000000000000000000           ",
"            ..$<000000000000000000000000000000000000            ",
"              000000000000000000000000000000000000              ",
"               0000000000000000000000000000000000               ",
"                 000000000000000000000000000000                 ",
"                   00000000000000000000000000                   ",
"                      00000000000000000000                      ",
"                         00000000000000                         "
};
