/* XPM */
static char *bf658fafa0f045f6adc396b8e727b2dfDoVRQEp038vvhqSz[] = {
/* columns rows colors chars-per-pixel */
"32 32 40 1 ",
"  c None",
". c #214161",
"X c #214869",
"o c #2F4D6B",
"O c #224E71",
"+ c #225579",
"@ c #3D5975",
"# c #4B657F",
"$ c #226289",
"% c #236891",
"& c #236F99",
"* c #2376A1",
"= c #237CA9",
"- c #597189",
"; c #667C92",
": c #2483B1",
"> c #74889C",
", c #2490C1",
"< c #259DD1",
"1 c #25A3D8",
"2 c #25A3D9",
"3 c #25AAE1",
"4 c #33AFE3",
"5 c #68A4C2",
"6 c #40B5E5",
"7 c #4EBAE7",
"8 c #5CBFE9",
"9 c #8294A6",
"0 c #90A0B0",
"q c #ACB8C4",
"w c #BAC4CE",
"e c #BACAD6",
"r c #92D5F0",
"t c #ADDFF4",
"y c #C8D0D8",
"u c #D5DBE1",
"i c #E3E7EB",
"p c #E4F4FB",
"a c #F1F3F5",
"s c white",
/* pixels */
"           3333333333           ",
"         33333333333333         ",
"       333333333333333333       ",
"      33333333333333333332      ",
"     333333333333333333<&X.     ",
"    33333333333333333,$.....    ",
"   3333333333333332:O........   ",
"  33333333333333<&X...........  ",
"  333333333333,$..............  ",
" 33333333333:+................. ",
" 36888733<*X.o900>o......y..... ",
"33rssssp5...>assssa-....-s>.....",
"33rsteiss-.;ssy90iss#...ysu.....",
"33rs-..qsu.isq....wsw..@sss-....",
",%0s-..oas;sa.....@ss..qsisy....",
"..0s-...ys0sy......ss.@ss@as@...",
"..0s-..@ss@sso....-sa.0sayasq...",
"..0s-.@usw.ysuo..@usqoasyyyss@..",
"..0suassao.#asawwasao>sw...qs0X*",
"..0sssaqo...#issssy@.is-...@sa43",
"..............#ss#........%,3333",
" ..............aa......X&<33333 ",
" ..............@@....O:23333333 ",
"  .................$,333333333  ",
"  ..............X&<33333333333  ",
"   ...........O:2333333333333   ",
"    ........$,33333333333333    ",
"     ....X%<333333333333333     ",
"      .O=23333333333333333      ",
"       333333333333333333       ",
"         33333333333333         ",
"           3333333333           "
};
