/* XPM */
static char *dee6c90e6d1b4d7dc5a1580a438b95a3MJ7dcFXhwtAkamhi[] = {
/* columns rows colors chars-per-pixel */
"16 16 40 1 ",
"  c None",
". c #214161",
"X c #214869",
"o c #2F4D6B",
"O c #224E71",
"+ c #225579",
"@ c #3D5975",
"# c #225B81",
"$ c #226188",
"% c #226289",
"& c #236891",
"* c #236F99",
"= c #2376A1",
"- c #597189",
"; c #667C92",
": c #3181AB",
"> c #2483B1",
", c #2489B9",
"< c #3F8DB5",
"1 c #74889C",
"2 c #2490C1",
"3 c #2496C9",
"4 c #259DD1",
"5 c #25A2D7",
"6 c #25A3D9",
"7 c #25AAE1",
"8 c #8294A6",
"9 c #90A0B0",
"0 c #9EACBA",
"q c #9EB2C2",
"w c #ACB8C4",
"e c #BAC4CE",
"r c #A0DAF2",
"t c #ADDFF4",
"y c #C8D0D8",
"u c #D5DBE1",
"i c #C9EAF8",
"p c #E3E7EB",
"a c #F1F3F5",
"s c white",
/* pixels */
"     777777     ",
"   7777777775   ",
"  777777774*X.  ",
" 77777772%..... ",
" 77777>O....... ",
"7rit<X9yy8..w@..",
"7iqep1a11a;osw..",
"+y-osa9..099pso.",
".y-8s0uoop9ass9.",
".ysa1oussu8p.-a:",
".......ww...#,77",
" ......oo.&3777 ",
" ......O=677777 ",
"  ...#>7777777  ",
"   %377777777   ",
"     777777     "
};
